<svg version="1.1" id="Layer_1" xmlns="http://www.w3.org/2000/svg" xmlns:xlink="http://www.w3.org/1999/xlink" x="0px" y="0px"
	 width="100%" viewBox="0 0 500 493" enable-background="new 0 0 500 493" xml:space="preserve">
<path fill="#000000" opacity="1.000000" stroke="none" 
	d="
M361.000000,1.000003 
	C407.656555,1.000000 454.313080,1.000000 500.984802,1.000000 
	C500.984802,165.287552 500.984802,329.575104 500.984802,493.931335 
	C334.415283,493.931335 167.830551,493.931335 1.122908,493.931335 
	C1.122908,329.784332 1.122908,165.568558 1.122908,1.000000 
	C119.689758,1.000000 238.379868,1.000000 357.866882,1.331227 
	C352.267914,3.104981 345.895630,4.663837 339.471375,5.966458 
	C324.909515,8.919119 310.317535,11.723148 295.746185,14.629447 
	C280.225769,17.725031 264.728638,20.938585 249.196533,23.973824 
	C230.023438,27.720581 210.803406,31.232904 191.672928,35.182167 
	C189.914001,35.545280 188.656281,38.336231 187.090454,40.415535 
	C186.994492,42.520603 186.973892,44.209949 186.580292,46.131775 
	C185.443680,58.553242 184.680069,70.742233 183.505310,82.961021 
	C180.413071,82.619156 177.731949,82.247490 174.840210,81.524277 
	C166.460434,79.837196 158.291290,78.501678 149.752533,77.093277 
	C148.265823,76.856766 147.145523,76.712212 146.032120,76.526382 
	C139.353500,75.411720 132.676468,74.287575 125.596832,73.085167 
	C116.462929,71.391335 107.731087,69.778946 98.588348,68.093262 
	C89.117821,66.402138 80.058197,64.784302 70.587509,63.093277 
	C68.608322,62.680573 67.049126,62.290970 65.470642,62.009495 
	C53.366680,59.851124 41.231339,57.855675 29.164900,55.505829 
	C23.704899,54.442535 18.834995,54.637466 15.000312,59.157185 
	C10.913203,63.974415 10.798590,69.136940 13.910016,74.514297 
	C18.251177,82.016975 22.565144,89.535385 26.941254,97.409943 
	C30.291380,103.530930 33.591003,109.289047 37.035408,115.374664 
	C40.417011,121.150276 43.653831,126.598381 46.942780,132.409821 
	C49.959938,137.864456 52.924973,142.955750 55.945404,148.407684 
	C59.318684,154.215820 62.636566,159.663345 65.980537,165.474915 
	C68.631844,170.239410 71.257065,174.639847 73.938065,179.405777 
	C77.957390,186.527786 81.920944,193.284317 85.939438,200.405945 
	C88.052917,204.510193 90.111465,208.249344 92.195358,212.336914 
	C95.869003,218.790146 99.517319,224.894958 103.195137,231.351959 
	C107.779396,239.484695 112.334152,247.265228 116.942017,255.407288 
	C119.959824,260.861542 122.924522,265.954285 126.035477,271.373413 
	C128.509033,275.792480 130.836319,279.885223 133.183929,284.327698 
	C136.120682,289.488800 139.037140,294.300110 142.094742,299.434326 
	C145.694550,305.796844 149.153214,311.836517 152.772385,318.164001 
	C156.677185,324.967743 160.421494,331.483612 164.194687,338.349762 
	C167.800888,344.837677 171.378204,350.975281 175.096558,357.435669 
	C177.813431,362.211304 180.389236,366.664185 183.103241,371.439819 
	C185.802612,376.198608 188.363800,380.634644 191.064117,385.396301 
	C194.453094,391.184845 197.702927,396.647766 200.979828,402.472290 
	C204.797806,409.468140 208.588715,416.102356 212.593811,423.010559 
	C217.084961,430.818939 221.361954,438.353333 225.793060,446.178711 
	C231.286926,455.894348 236.814270,465.218933 241.912064,474.772736 
	C246.715591,483.775055 259.813019,483.160828 263.866302,476.380676 
	C267.101349,470.969238 269.940887,465.322906 273.036926,459.826447 
	C280.194336,447.119781 287.478333,434.483856 294.567291,421.739319 
	C302.830048,406.884491 310.939728,391.944550 319.431213,376.884705 
	C320.395905,375.425171 321.000488,374.097870 321.701294,372.823486 
	C329.737305,358.210449 337.787964,343.605530 345.987793,328.676849 
	C346.756500,327.598755 347.495575,326.912048 347.969147,326.075104 
	C353.997711,315.422058 360.050903,304.782074 365.969269,294.067749 
	C371.103882,284.772278 376.074799,275.386353 381.432617,265.882446 
	C387.109558,255.816116 392.471924,245.907730 397.986877,235.677643 
	C402.789886,227.256439 407.440308,219.156906 412.408447,210.894501 
	C416.855774,202.835083 420.985413,194.938553 425.435883,186.900604 
	C430.115631,178.839584 434.474579,170.919937 438.986511,162.677979 
	C445.132233,151.584122 451.124908,140.812561 457.430359,129.884216 
	C458.814728,127.916527 459.921844,126.125572 460.952240,124.291519 
	C468.574860,110.723915 476.316681,97.220436 483.719330,83.533638 
	C486.207428,78.933342 487.820831,73.859970 489.906555,68.591576 
	C489.264069,65.455681 488.549072,62.731033 487.805115,59.654709 
	C481.439484,52.867432 474.258911,54.638142 466.576233,57.093899 
	C464.718658,57.212242 463.276947,57.354973 461.853271,57.601952 
	C451.230103,59.444859 440.610535,61.308392 429.724060,63.132126 
	C429.264618,63.386845 429.070984,63.674904 428.652740,63.989532 
	C428.428101,64.016106 428.001221,64.166008 427.583954,64.093491 
	C426.337280,64.038361 425.486450,63.940548 424.681702,64.090408 
	C412.118378,66.429985 399.561035,68.801529 386.599396,71.102509 
	C373.182495,73.355637 360.168518,75.671951 347.086731,77.618057 
	C347.290466,75.830315 347.562012,74.412773 347.911560,72.607300 
	C350.660034,63.122818 353.401764,54.046413 355.979004,44.923523 
	C358.125519,37.325127 360.078979,29.672169 362.442200,21.875135 
	C363.455597,19.470703 364.144806,17.234516 364.907471,14.586792 
	C366.843048,8.983801 366.763306,4.477180 360.738312,2.022070 
	C360.694061,2.004045 360.907104,1.354614 361.000000,1.000003 
z"/>
<path fill="#FFE253" opacity="1.000000" stroke="none" 
	d="
M187.165817,39.999813 
	C188.656281,38.336231 189.914001,35.545280 191.672928,35.182167 
	C210.803406,31.232904 230.023438,27.720581 249.196533,23.973824 
	C264.728638,20.938585 280.225769,17.725031 295.746185,14.629447 
	C310.317535,11.723148 324.909515,8.919119 339.471375,5.966458 
	C345.895630,4.663837 352.267914,3.104981 358.331909,1.331227 
	C358.750000,1.000000 359.500000,1.000000 360.625000,1.000003 
	C360.907104,1.354614 360.694061,2.004045 360.738312,2.022070 
	C366.763306,4.477180 366.843048,8.983801 364.489197,14.588406 
	C353.324951,16.503040 342.647675,17.971849 331.980896,19.513454 
	C314.909546,21.980671 297.847137,24.509874 280.777313,26.987665 
	C261.245728,29.822790 241.718155,32.687618 222.173264,35.428383 
	C210.519592,37.062569 198.835968,38.483189 187.165817,39.999813 
z"/>
<path fill="#FFD931" opacity="1.000000" stroke="none" 
	d="
M183.916443,82.931229 
	C184.680069,70.742233 185.443680,58.553242 186.877899,46.390968 
	C191.626434,46.132519 195.737564,46.085018 199.776581,45.521000 
	C217.171097,43.091976 234.545288,40.516998 251.925308,37.984501 
	C271.273682,35.165180 290.617584,32.315033 309.968597,29.514160 
	C327.348053,26.998648 344.734558,24.531733 362.117950,22.043385 
	C360.078979,29.672169 358.125519,37.325127 355.979004,44.923523 
	C353.401764,54.046413 350.660034,63.122818 347.513123,72.631531 
	C329.663116,75.691399 312.297852,78.395317 294.913757,80.971901 
	C275.233826,83.888756 255.537506,86.695007 235.847351,89.542587 
	C218.619995,92.034012 201.391312,94.516060 184.102783,96.559570 
	C184.000397,91.721672 183.958420,87.326447 183.916443,82.931229 
z"/>
<path fill="#FFD129" opacity="1.000000" stroke="none" 
	d="
M184.163208,97.002243 
	C201.391312,94.516060 218.619995,92.034012 235.847351,89.542587 
	C255.537506,86.695007 275.233826,83.888756 294.913757,80.971901 
	C312.297852,78.395317 329.663116,75.691399 347.435120,73.019470 
	C347.562012,74.412773 347.290466,75.830315 346.916870,77.945343 
	C346.336395,79.084793 345.577972,79.444885 345.421204,79.980904 
	C342.801727,88.938553 340.257477,97.918198 337.439514,107.157074 
	C336.066132,110.948364 334.949738,114.475517 333.391357,118.001892 
	C330.303375,118.166428 327.631592,118.151939 325.015472,118.526207 
	C307.957153,120.966644 290.912415,123.502052 273.860260,125.985756 
	C254.185684,128.851425 234.513351,131.733093 214.829636,134.534714 
	C203.843536,136.098389 192.836288,137.513596 181.757507,138.563400 
	C181.709274,136.084991 181.742081,134.038879 181.863190,131.545471 
	C182.529007,120.733345 183.106552,110.368553 183.783173,99.635742 
	C183.975891,98.512566 184.069550,97.757401 184.163208,97.002243 
z"/>
<path fill="#9567FE" opacity="1.000000" stroke="none" 
	d="
M489.834045,69.002823 
	C487.820831,73.859970 486.207428,78.933342 483.719330,83.533638 
	C476.316681,97.220436 468.574860,110.723915 460.952240,124.291519 
	C459.921844,126.125572 458.814728,127.916527 457.052429,129.887070 
	C454.709778,130.745285 452.844391,131.152908 451.437439,132.185333 
	C423.206329,152.901749 395.049255,173.719208 366.797485,194.407303 
	C364.597809,196.018097 361.809143,196.824585 359.383972,197.665054 
	C361.032074,193.976334 362.590454,190.627411 364.423859,187.052887 
	C371.146057,173.578308 377.593201,160.329330 384.338226,146.910873 
	C385.702362,144.809662 386.768616,142.877930 388.216370,140.946808 
	C390.822998,139.911148 393.295227,139.211594 395.235382,137.787216 
	C417.585693,121.378693 439.805695,104.792542 462.170532,88.404030 
	C471.253448,81.748276 480.604828,75.458916 489.834045,69.002823 
z"/>
<path fill="#B53EFE" opacity="1.000000" stroke="none" 
	d="
M345.834717,328.998413 
	C337.787964,343.605530 329.737305,358.210449 321.701294,372.823486 
	C321.000488,374.097870 320.395905,375.425171 319.072998,376.925537 
	C316.830627,378.006500 315.151825,378.739624 313.709564,379.795746 
	C290.328033,396.917084 266.928772,414.014984 243.650208,431.275574 
	C237.445908,435.875854 231.632050,441.002686 225.638947,445.887756 
	C221.361954,438.353333 217.084961,430.818939 212.836502,422.684387 
	C217.135712,418.693146 221.271301,415.112152 225.708420,411.954956 
	C232.558304,407.080994 239.614517,402.497009 246.759476,398.073486 
	C251.218689,403.595154 255.040558,403.549286 258.567810,397.861481 
	C261.341553,393.388702 263.656281,388.631287 266.535278,383.983948 
	C269.101318,382.871552 271.523102,382.069946 273.479218,380.633972 
	C293.284393,366.095398 312.965759,351.387848 332.803345,336.893921 
	C336.889038,333.908813 341.477814,331.612305 345.834717,328.998413 
z"/>
<path fill="#BC35FE" opacity="1.000000" stroke="none" 
	d="
M225.793060,446.178711 
	C231.632050,441.002686 237.445908,435.875854 243.650208,431.275574 
	C266.928772,414.014984 290.328033,396.917084 313.709564,379.795746 
	C315.151825,378.739624 316.830627,378.006500 318.757629,377.082336 
	C310.939728,391.944550 302.830048,406.884491 294.567291,421.739319 
	C287.478333,434.483856 280.194336,447.119781 273.036926,459.826447 
	C269.940887,465.322906 267.101349,470.969238 263.866302,476.380676 
	C259.813019,483.160828 246.715591,483.775055 241.912064,474.772736 
	C236.814270,465.218933 231.286926,455.894348 225.793060,446.178711 
z"/>
<path fill="#AF47FD" opacity="1.000000" stroke="none" 
	d="
M345.987793,328.676849 
	C341.477814,331.612305 336.889038,333.908813 332.803345,336.893921 
	C312.965759,351.387848 293.284393,366.095398 273.479218,380.633972 
	C271.523102,382.069946 269.101318,382.871552 266.579651,383.640015 
	C275.912567,364.210663 285.561493,345.108917 295.563660,325.988770 
	C297.663086,325.064972 299.563293,324.370087 301.132538,323.222626 
	C325.095032,305.700470 348.993500,288.090759 372.974548,270.594238 
	C375.468811,268.774414 378.393219,267.544189 381.118042,266.040405 
	C376.074799,275.386353 371.103882,284.772278 365.969269,294.067749 
	C360.050903,304.782074 353.997711,315.422058 347.969147,326.075104 
	C347.495575,326.912048 346.756500,327.598755 345.987793,328.676849 
z"/>
<path fill="#6B9DFF" opacity="1.000000" stroke="none" 
	d="
M183.684113,100.003754 
	C183.106552,110.368553 182.529007,120.733345 181.506332,131.563904 
	C179.003067,133.041809 176.741455,133.775543 174.917801,135.108490 
	C152.851532,151.236984 130.869125,167.480133 108.820847,183.633347 
	C101.238380,189.188492 93.533470,194.576492 85.884506,200.040848 
	C81.920944,193.284317 77.957390,186.527786 74.287392,179.344147 
	C76.307968,177.658600 78.039604,176.406448 79.761330,175.140823 
	C107.017540,155.105026 134.231766,135.011688 161.555130,115.067909 
	C168.758728,109.809898 176.298630,105.012611 183.684113,100.003754 
z"/>
<path fill="#62A8FF" opacity="1.000000" stroke="none" 
	d="
M65.954437,165.110855 
	C62.636566,159.663345 59.318684,154.215820 56.262535,148.260056 
	C58.083523,146.794052 59.722084,145.943970 61.190319,144.862625 
	C89.569450,123.961609 117.945282,103.055939 146.248550,82.052521 
	C147.860657,80.856201 148.845398,78.814438 150.122131,77.166161 
	C158.291290,78.501678 166.460434,79.837196 174.776657,81.872131 
	C173.420120,84.296883 172.170990,86.365967 170.374603,87.695801 
	C144.874207,106.573410 119.278160,125.321716 93.754333,144.167770 
	C84.421371,151.058960 75.217308,158.124725 65.954437,165.110855 
z"/>
<path fill="#67A1FF" opacity="1.000000" stroke="none" 
	d="
M65.980530,165.474915 
	C75.217308,158.124725 84.421371,151.058960 93.754333,144.167770 
	C119.278160,125.321716 144.874207,106.573410 170.374603,87.695801 
	C172.170990,86.365967 173.420120,84.296883 174.987274,82.223694 
	C177.731949,82.247490 180.413071,82.619156 183.505310,82.961021 
	C183.958420,87.326447 184.000397,91.721672 184.102783,96.559570 
	C184.069550,97.757401 183.975891,98.512566 183.783173,99.635742 
	C176.298630,105.012611 168.758728,109.809898 161.555130,115.067909 
	C134.231766,135.011688 107.017540,155.105026 79.761330,175.140823 
	C78.039604,176.406448 76.307968,177.658600 74.231613,178.978668 
	C71.257065,174.639847 68.631844,170.239410 65.980530,165.474915 
z"/>
<path fill="#7D85FE" opacity="1.000000" stroke="none" 
	d="
M116.888908,255.045776 
	C112.334152,247.265228 107.779396,239.484695 103.527412,231.284958 
	C105.110718,230.103104 106.467552,229.443726 107.660500,228.562485 
	C129.821747,212.191925 151.953094,195.780853 174.133514,179.436371 
	C175.561554,178.384048 177.336731,177.802780 179.019989,177.461319 
	C178.497253,189.280823 177.904938,200.641357 177.202621,212.250092 
	C177.023590,212.665604 176.954559,212.832932 176.528564,213.015228 
	C175.399246,213.287689 174.501404,213.372437 173.873444,213.828644 
	C164.921066,220.332504 156.036575,226.929993 147.072083,233.416992 
	C137.044678,240.673096 126.952751,247.840027 116.888908,255.045776 
z"/>
<path fill="#8F6FFE" opacity="1.000000" stroke="none" 
	d="
M152.611877,317.876160 
	C149.153214,311.836517 145.694550,305.796844 142.259705,299.132660 
	C143.332260,297.456818 144.264923,296.247925 145.446747,295.377258 
	C173.044205,275.046143 200.653381,254.730743 228.326157,234.502426 
	C229.976242,233.296249 232.175674,232.841599 234.130203,232.475647 
	C233.466202,237.609909 232.791458,242.305756 231.972717,247.370789 
	C230.763199,252.562515 229.697662,257.385040 228.242218,262.196899 
	C226.361404,262.848022 224.692825,263.266785 223.406113,264.207703 
	C201.049835,280.556396 178.724258,296.947327 156.456070,313.415680 
	C154.916901,314.553955 153.881531,316.373444 152.611877,317.876160 
z"/>
<path fill="#7490FF" opacity="1.000000" stroke="none" 
	d="
M178.950424,177.002380 
	C177.336731,177.802780 175.561554,178.384048 174.133514,179.436371 
	C151.953094,195.780853 129.821747,212.191925 107.660500,228.562485 
	C106.467552,229.443726 105.110718,230.103104 103.497902,230.932770 
	C99.517319,224.894958 95.869003,218.790146 92.526085,212.272919 
	C117.548981,193.745071 142.230469,175.580093 167.017914,157.560883 
	C171.374603,154.393784 176.175171,151.837296 180.829453,149.436172 
	C180.457916,158.246170 180.027695,166.618805 179.451843,175.313828 
	C179.187622,176.091599 179.069031,176.546982 178.950424,177.002380 
z"/>
<path fill="#9C5EFD" opacity="1.000000" stroke="none" 
	d="
M174.955505,357.112915 
	C171.378204,350.975281 167.800888,344.837677 164.532944,338.287415 
	C165.885529,337.373901 167.039703,337.023682 167.955338,336.349487 
	C182.235779,325.834167 196.537613,315.346558 210.717255,304.696381 
	C216.642563,300.245972 222.293076,295.429718 228.476837,290.805420 
	C235.764603,289.023590 242.624039,287.134705 249.530167,285.435547 
	C254.651154,284.175598 259.832764,283.162079 265.226196,282.317139 
	C268.987091,284.632874 268.322510,287.839569 267.441223,291.005432 
	C264.989868,291.935516 262.681335,292.543701 260.869202,293.843842 
	C251.145798,300.819916 241.536301,307.955170 231.905579,315.059967 
	C212.915924,329.069092 193.938187,343.094330 174.955505,357.112915 
z"/>
<path fill="#9567FE" opacity="1.000000" stroke="none" 
	d="
M228.068542,290.779816 
	C222.293076,295.429718 216.642563,300.245972 210.717255,304.696381 
	C196.537613,315.346558 182.235779,325.834167 167.955338,336.349487 
	C167.039703,337.023682 165.885529,337.373901 164.504059,337.937134 
	C160.421494,331.483612 156.677185,324.967743 152.772385,318.164001 
	C153.881531,316.373444 154.916901,314.553955 156.456070,313.415680 
	C178.724258,296.947327 201.049835,280.556396 223.406113,264.207703 
	C224.692825,263.266785 226.361404,262.848022 228.219711,262.618774 
	C227.327225,269.334320 226.277496,275.669708 224.731583,281.881592 
	C223.743271,285.852875 224.897949,288.585266 228.068542,290.779816 
z"/>
<path fill="#5DAEFF" opacity="1.000000" stroke="none" 
	d="
M149.752533,77.093277 
	C148.845398,78.814438 147.860657,80.856201 146.248550,82.052521 
	C117.945282,103.055939 89.569450,123.961609 61.190319,144.862625 
	C59.722084,145.943970 58.083523,146.794052 56.207134,147.899429 
	C52.924973,142.955750 49.959938,137.864456 47.246143,132.245224 
	C67.735077,116.915749 88.013985,102.170021 108.185463,87.278770 
	C114.276451,82.782204 120.069420,77.881950 125.998901,73.166611 
	C132.676468,74.287575 139.353500,75.411720 146.032120,76.526382 
	C147.145523,76.712212 148.265823,76.856766 149.752533,77.093277 
z"/>
<path fill="#9C5EFD" opacity="1.000000" stroke="none" 
	d="
M359.294220,198.004868 
	C361.809143,196.824585 364.597809,196.018097 366.797485,194.407303 
	C395.049255,173.719208 423.206329,152.901749 451.437439,132.185333 
	C452.844391,131.152908 454.709778,130.745285 456.739655,130.043854 
	C451.124908,140.812561 445.132233,151.584122 438.630951,162.694275 
	C435.149017,164.795471 432.001984,166.321472 429.229279,168.357285 
	C402.453949,188.016510 375.756958,207.782364 348.966064,227.420212 
	C347.623230,228.404526 345.623108,228.492157 343.971313,228.636017 
	C349.107147,218.184753 354.200684,208.094818 359.294220,198.004868 
z"/>
<path fill="#8A75FE" opacity="1.000000" stroke="none" 
	d="
M234.119476,232.037216 
	C232.175674,232.841599 229.976242,233.296249 228.326157,234.502426 
	C200.653381,254.730743 173.044205,275.046143 145.446747,295.377258 
	C144.264923,296.247925 143.332260,297.456818 142.118561,298.809784 
	C139.037140,294.300110 136.120682,289.488800 133.522720,284.271118 
	C135.017593,283.260529 136.301773,282.803101 137.354538,282.030426 
	C161.200119,264.528381 185.059082,247.044052 208.824677,229.433823 
	C217.351013,223.115829 225.640732,216.478531 234.413010,210.015366 
	C235.890152,211.696274 238.112167,213.513077 237.897995,214.972336 
	C237.054199,220.721649 235.444778,226.358582 234.119476,232.037216 
z"/>
<path fill="#8A75FE" opacity="1.000000" stroke="none" 
	d="
M429.989838,63.165462 
	C440.610535,61.308392 451.230103,59.444859 461.853271,57.601952 
	C463.276947,57.354973 464.718658,57.212242 466.509094,57.423347 
	C465.738892,58.989777 464.747681,60.337105 463.464172,61.291237 
	C440.794891,78.143173 418.066101,94.915245 395.445618,111.832176 
	C393.910889,112.979942 393.132812,115.139412 391.563904,116.843491 
	C388.994324,117.098083 386.843384,117.223190 384.736420,117.596375 
	C374.486572,119.411804 364.248505,121.293625 354.055267,122.801117 
	C355.458313,120.810623 356.546570,118.810692 358.206757,117.586044 
	C378.540375,102.586861 399.006165,87.766479 419.304199,72.719711 
	C422.539154,70.321678 425.118683,67.039459 428.001221,64.166008 
	C428.001221,64.166008 428.428101,64.016106 428.864258,63.895683 
	C429.572632,63.619926 429.802429,63.416660 429.989838,63.165462 
z"/>
<path fill="#8779FE" opacity="1.000000" stroke="none" 
	d="
M427.583954,64.093491 
	C425.118683,67.039459 422.539154,70.321678 419.304199,72.719711 
	C399.006165,87.766479 378.540375,102.586861 358.206757,117.586044 
	C356.546570,118.810692 355.458313,120.810623 353.739929,123.017883 
	C350.125336,124.219833 346.873535,124.846352 343.625122,125.490112 
	C336.367065,126.928505 334.275726,125.332588 333.833344,118.002670 
	C334.949738,114.475517 336.066132,110.948364 337.829407,107.170830 
	C340.260681,106.163727 342.264832,105.710449 343.794617,104.602287 
	C356.095703,95.691437 368.352478,86.717323 380.508087,77.609482 
	C382.925232,75.798409 384.850311,73.330666 387.002289,71.165718 
	C399.561035,68.801529 412.118378,66.429985 424.681702,64.090408 
	C425.486450,63.940548 426.337280,64.038361 427.583954,64.093491 
z"/>
<path fill="#A059FE" opacity="1.000000" stroke="none" 
	d="
M175.096558,357.435669 
	C193.938187,343.094330 212.915924,329.069092 231.905579,315.059967 
	C241.536301,307.955170 251.145798,300.819916 260.869202,293.843842 
	C262.681335,292.543701 264.989868,291.935516 267.478302,291.395142 
	C266.247284,299.188477 264.607330,306.594727 262.599030,314.015015 
	C260.593384,314.759216 258.774689,315.237122 257.349274,316.261993 
	C250.086838,321.483612 242.926346,326.846985 235.729843,332.160278 
	C218.141678,345.145996 200.553329,358.131500 182.965042,371.117065 
	C180.389236,366.664185 177.813431,362.211304 175.096558,357.435669 
z"/>
<path fill="#58B4FF" opacity="1.000000" stroke="none" 
	d="
M125.596832,73.085167 
	C120.069420,77.881950 114.276451,82.782204 108.185463,87.278770 
	C88.013985,102.170021 67.735077,116.915749 47.194019,131.881897 
	C43.653831,126.598381 40.417011,121.150276 37.362122,115.228119 
	C38.885941,114.125862 40.376518,113.699944 41.547447,112.839188 
	C59.807907,99.415901 78.049049,85.965874 96.208595,72.406761 
	C97.483429,71.454895 98.084747,69.600998 98.999252,68.166550 
	C107.731087,69.778946 116.462929,71.391335 125.596832,73.085167 
z"/>
<path fill="#8779FE" opacity="1.000000" stroke="none" 
	d="
M234.038452,209.986969 
	C225.640732,216.478531 217.351013,223.115829 208.824677,229.433823 
	C185.059082,247.044052 161.200119,264.528381 137.354538,282.030426 
	C136.301773,282.803101 135.017593,283.260529 133.502411,283.921387 
	C130.836319,279.885223 128.509033,275.792480 126.351585,271.226440 
	C126.964249,270.521118 127.446281,270.342468 127.844254,270.049622 
	C149.800415,253.891937 171.767639,237.749084 193.648819,221.490433 
	C194.808212,220.628967 195.234085,218.780334 196.374512,217.242188 
	C207.809967,214.487732 218.861008,211.831863 229.950363,209.346970 
	C231.202377,209.066422 232.670532,209.750320 234.038452,209.986969 
z"/>
<path fill="#A94EFD" opacity="1.000000" stroke="none" 
	d="
M381.432617,265.882446 
	C378.393219,267.544189 375.468811,268.774414 372.974548,270.594238 
	C348.993500,288.090759 325.095032,305.700470 301.132538,323.222626 
	C299.563293,324.370087 297.663086,325.064972 295.618835,325.647278 
	C300.170166,315.869934 305.019531,306.415649 310.242340,296.957916 
	C312.380859,296.106964 314.334839,295.515503 315.882629,294.373566 
	C338.284332,277.845886 360.570587,261.161011 383.042236,244.729446 
	C387.641632,241.366318 392.886810,238.886383 397.834290,235.999329 
	C392.471924,245.907730 387.109558,255.816116 381.432617,265.882446 
z"/>
<path fill="#7195FF" opacity="1.000000" stroke="none" 
	d="
M180.770752,148.998810 
	C176.175171,151.837296 171.374603,154.393784 167.017914,157.560883 
	C142.230469,175.580093 117.548981,193.745071 92.500748,211.924500 
	C90.111465,208.249344 88.052917,204.510193 85.939438,200.405945 
	C93.533470,194.576492 101.238380,189.188492 108.820847,183.633347 
	C130.869125,167.480133 152.851532,151.236984 174.917801,135.108490 
	C176.741455,133.775543 179.003067,133.041809 181.418060,132.011230 
	C181.742081,134.038879 181.709274,136.084991 181.598785,138.938782 
	C181.271011,142.830582 181.020874,145.914688 180.770752,148.998810 
z"/>
<path fill="#A454FD" opacity="1.000000" stroke="none" 
	d="
M183.103241,371.439819 
	C200.553329,358.131500 218.141678,345.145996 235.729843,332.160278 
	C242.926346,326.846985 250.086838,321.483612 257.349274,316.261993 
	C258.774689,315.237122 260.593384,314.759216 262.631714,314.423431 
	C261.418884,322.230255 259.804993,329.642731 257.827148,337.089996 
	C255.429382,338.217163 253.229187,339.083099 251.387299,340.436646 
	C231.201004,355.270844 211.070587,370.181091 190.924973,385.070679 
	C188.363800,380.634644 185.802612,376.198608 183.103241,371.439819 
z"/>
<path fill="#A94EFD" opacity="1.000000" stroke="none" 
	d="
M191.064117,385.396301 
	C211.070587,370.181091 231.201004,355.270844 251.387299,340.436646 
	C253.229187,339.083099 255.429382,338.217163 257.839355,337.504639 
	C256.211670,347.274994 254.207779,356.665466 251.821014,366.054688 
	C250.040344,366.531036 248.410599,366.695557 247.279724,367.533447 
	C231.797134,379.004822 216.383423,390.569183 200.952759,402.110657 
	C197.702927,396.647766 194.453094,391.184845 191.064117,385.396301 
z"/>
<path fill="#53BBFF" opacity="1.000000" stroke="none" 
	d="
M98.588348,68.093262 
	C98.084747,69.600998 97.483429,71.454895 96.208595,72.406761 
	C78.049049,85.965874 59.807907,99.415901 41.547447,112.839188 
	C40.376518,113.699944 38.885941,114.125862 37.217342,114.900612 
	C33.591003,109.289047 30.291380,103.530930 27.257187,97.262833 
	C41.217186,86.782181 54.933094,76.840431 68.566208,66.786415 
	C69.667770,65.974045 70.201157,64.391251 70.998566,63.166462 
	C80.058197,64.784302 89.117821,66.402138 98.588348,68.093262 
z"/>
<path fill="#A059FE" opacity="1.000000" stroke="none" 
	d="
M343.929016,228.997314 
	C345.623108,228.492157 347.623230,228.404526 348.966064,227.420212 
	C375.756958,207.782364 402.453949,188.016510 429.229279,168.357285 
	C432.001984,166.321472 435.149017,164.795471 438.477936,163.016602 
	C434.474579,170.919937 430.115631,178.839584 425.083588,186.944763 
	C423.113434,187.852798 421.719086,188.443268 420.533722,189.317261 
	C394.513092,208.503510 368.545288,227.761658 342.476196,246.881683 
	C339.218750,249.270798 335.448975,250.961395 331.958923,252.615021 
	C335.154785,245.788528 338.308289,239.322693 341.678162,232.604706 
	C342.572723,231.234161 343.250885,230.115738 343.929016,228.997314 
z"/>
<path fill="#827FFE" opacity="1.000000" stroke="none" 
	d="
M196.001434,217.391266 
	C195.234085,218.780334 194.808212,220.628967 193.648819,221.490433 
	C171.767639,237.749084 149.800415,253.891937 127.844254,270.049622 
	C127.446281,270.342468 126.964249,270.521118 126.205322,270.900055 
	C122.924522,265.954285 119.959824,260.861542 116.942017,255.407288 
	C126.952751,247.840027 137.044678,240.673096 147.072083,233.416992 
	C156.036575,226.929993 164.921066,220.332504 173.873444,213.828644 
	C174.501404,213.372437 175.399246,213.287689 176.607605,213.396210 
	C178.167252,219.523636 180.788605,221.164795 186.582825,219.730499 
	C189.722961,218.953201 192.861954,218.171173 196.001434,217.391266 
z"/>
<path fill="#4DC2FF" opacity="1.000000" stroke="none" 
	d="
M70.587509,63.093277 
	C70.201157,64.391251 69.667770,65.974045 68.566208,66.786415 
	C54.933094,76.840431 41.217186,86.782181 27.206680,96.899963 
	C22.565144,89.535385 18.251177,82.016975 13.910016,74.514297 
	C10.798590,69.136940 10.913203,63.974415 15.000312,59.157185 
	C18.834995,54.637466 23.704899,54.442535 29.164900,55.505829 
	C41.231339,57.855675 53.366680,59.851124 65.470642,62.009495 
	C67.049126,62.290970 68.608322,62.680573 70.587509,63.093277 
z"/>
<path fill="#A454FD" opacity="1.000000" stroke="none" 
	d="
M397.986877,235.677643 
	C392.886810,238.886383 387.641632,241.366318 383.042236,244.729446 
	C360.570587,261.161011 338.284332,277.845886 315.882629,294.373566 
	C314.334839,295.515503 312.380859,296.106964 310.289124,296.582458 
	C310.598907,294.729767 311.179291,293.221893 311.881317,291.772949 
	C314.914490,285.512390 317.983368,279.269165 321.256531,272.958557 
	C321.473816,272.897461 321.912689,272.791565 322.130249,273.021729 
	C323.937592,272.633148 325.755249,272.324768 327.083527,271.349731 
	C352.913055,252.390045 378.658783,233.316071 404.517944,214.397141 
	C406.692627,212.806091 409.550354,212.148605 412.090729,211.057388 
	C407.440308,219.156906 402.789886,227.256439 397.986877,235.677643 
z"/>
<path fill="#A256FE" opacity="1.000000" stroke="none" 
	d="
M412.408447,210.894501 
	C409.550354,212.148605 406.692627,212.806091 404.517944,214.397141 
	C378.658783,233.316071 352.913055,252.390045 327.083527,271.349731 
	C325.755249,272.324768 323.937592,272.633148 322.156006,272.665833 
	C325.281708,265.711731 328.599152,259.343719 331.916595,252.975662 
	C335.448975,250.961395 339.218750,249.270798 342.476196,246.881683 
	C368.545288,227.761658 394.513092,208.503510 420.533722,189.317261 
	C421.719086,188.443268 423.113434,187.852798 424.762756,187.086151 
	C420.985413,194.938553 416.855774,202.835083 412.408447,210.894501 
z"/>
<path fill="#8F6FFE" opacity="1.000000" stroke="none" 
	d="
M392.002808,116.828354 
	C393.132812,115.139412 393.910889,112.979942 395.445618,111.832176 
	C418.066101,94.915245 440.794891,78.143173 463.464172,61.291237 
	C464.747681,60.337105 465.738892,58.989777 466.933289,57.495995 
	C474.258911,54.638142 481.439484,52.867432 487.444153,59.669418 
	C485.330048,60.865368 483.353851,61.428677 481.795135,62.564732 
	C460.737610,77.911827 439.790649,93.410957 418.695770,108.706245 
	C411.341553,114.038582 403.657684,118.916260 396.076080,123.627739 
	C394.686157,121.112053 393.344482,118.970207 392.002808,116.828354 
z"/>
<path fill="#AF47FD" opacity="1.000000" stroke="none" 
	d="
M200.979828,402.472290 
	C216.383423,390.569183 231.797134,379.004822 247.279724,367.533447 
	C248.410599,366.695557 250.040344,366.531036 251.829742,366.472168 
	C250.341965,377.190582 248.462585,387.490326 246.583221,397.790039 
	C239.614517,402.497009 232.558304,407.080994 225.708420,411.954956 
	C221.271301,415.112152 217.135712,418.693146 212.622314,422.410431 
	C208.588715,416.102356 204.797806,409.468140 200.979828,402.472290 
z"/>
<path fill="#FFDF42" opacity="1.000000" stroke="none" 
	d="
M362.442200,21.875137 
	C344.734558,24.531733 327.348053,26.998648 309.968597,29.514160 
	C290.617584,32.315033 271.273682,35.165180 251.925308,37.984501 
	C234.545288,40.516998 217.171097,43.091976 199.776581,45.521000 
	C195.737564,46.085018 191.626434,46.132519 187.250885,46.158493 
	C186.973892,44.209949 186.994492,42.520603 187.090454,40.415535 
	C198.835968,38.483189 210.519592,37.062569 222.173264,35.428383 
	C241.718155,32.687618 261.245728,29.822790 280.777313,26.987665 
	C297.847137,24.509874 314.909546,21.980671 331.980896,19.513454 
	C342.647675,17.971849 353.324951,16.503040 364.415771,14.999945 
	C364.144806,17.234516 363.455597,19.470703 362.442200,21.875137 
z"/>
<path fill="#916CFD" opacity="1.000000" stroke="none" 
	d="
M396.124329,124.001579 
	C403.657684,118.916260 411.341553,114.038582 418.695770,108.706245 
	C439.790649,93.410957 460.737610,77.911827 481.795135,62.564732 
	C483.353851,61.428677 485.330048,60.865368 487.473145,60.021095 
	C488.549072,62.731033 489.264069,65.455681 489.906555,68.591583 
	C480.604828,75.458916 471.253448,81.748276 462.170532,88.404030 
	C439.805695,104.792542 417.585693,121.378693 395.235382,137.787216 
	C393.295227,139.211594 390.822998,139.911148 388.322449,140.601669 
	C390.739441,134.837814 393.431885,129.419693 396.124329,124.001579 
z"/>
<path fill="#827FFE" opacity="1.000000" stroke="none" 
	d="
M386.599396,71.102524 
	C384.850311,73.330666 382.925232,75.798409 380.508087,77.609482 
	C368.352478,86.717323 356.095703,95.691437 343.794617,104.602287 
	C342.264832,105.710449 340.260681,106.163727 338.086395,106.906708 
	C340.257477,97.918198 342.801727,88.938553 345.421204,79.980904 
	C345.577972,79.444885 346.336395,79.084793 346.984680,78.315552 
	C360.168518,75.671951 373.182495,73.355637 386.599396,71.102524 
z"/>
<path fill="#8779FE" opacity="1.000000" stroke="none" 
	d="
M429.724060,63.132122 
	C429.802429,63.416660 429.572632,63.619926 429.088928,63.869110 
	C429.070984,63.674904 429.264618,63.386845 429.724060,63.132122 
z"/>
<path fill="#FFCB23" opacity="1.000000" stroke="none" 
	d="
M396.076080,123.627739 
	C393.431885,129.419693 390.739441,134.837814 387.940918,140.601074 
	C386.768616,142.877930 385.702362,144.809662 384.028015,146.652344 
	C381.785889,146.386673 380.101929,145.861450 378.525421,146.087036 
	C361.613647,148.507065 344.722656,151.072128 327.818237,153.544373 
	C310.585693,156.064621 293.342621,158.512436 276.107635,161.015976 
	C256.738800,163.829437 237.375870,166.683578 218.006531,169.493515 
	C205.207016,171.350357 192.400726,173.160446 179.597458,174.991455 
	C180.027695,166.618805 180.457916,158.246170 180.829453,149.436157 
	C181.020874,145.914688 181.271011,142.830582 181.679855,139.371094 
	C192.836288,137.513596 203.843536,136.098389 214.829636,134.534714 
	C234.513351,131.733093 254.185684,128.851425 273.860260,125.985756 
	C290.912415,123.502052 307.957153,120.966644 325.015472,118.526207 
	C327.631592,118.151939 330.303375,118.166428 333.391357,118.001892 
	C334.275726,125.332588 336.367065,126.928505 343.625122,125.490112 
	C346.873535,124.846352 350.125336,124.219833 353.690918,123.368713 
	C364.248505,121.293625 374.486572,119.411804 384.736420,117.596375 
	C386.843384,117.223190 388.994324,117.098083 391.563904,116.843491 
	C393.344482,118.970207 394.686157,121.112053 396.076080,123.627739 
z"/>
<path fill="#FFC61E" opacity="1.000000" stroke="none" 
	d="
M179.451843,175.313843 
	C192.400726,173.160446 205.207016,171.350357 218.006531,169.493515 
	C237.375870,166.683578 256.738800,163.829437 276.107635,161.015976 
	C293.342621,158.512436 310.585693,156.064621 327.818237,153.544373 
	C344.722656,151.072128 361.613647,148.507065 378.525421,146.087036 
	C380.101929,145.861450 381.785889,146.386673 383.730164,146.821808 
	C377.593201,160.329330 371.146057,173.578308 364.119202,186.763458 
	C361.094391,186.530975 358.585846,185.920517 356.213745,186.260864 
	C327.212494,190.421921 298.229950,194.713577 269.245300,198.989960 
	C249.430679,201.913376 229.630127,204.933945 209.804230,207.778259 
	C198.994202,209.329102 188.144470,210.603058 177.312637,212.001907 
	C177.904938,200.641357 178.497253,189.280823 179.019989,177.461334 
	C179.069031,176.546982 179.187622,176.091599 179.451843,175.313843 
z"/>
<path fill="#FFBF17" opacity="1.000000" stroke="none" 
	d="
M177.202621,212.250092 
	C188.144470,210.603058 198.994202,209.329102 209.804230,207.778259 
	C229.630127,204.933945 249.430679,201.913376 269.245300,198.989960 
	C298.229950,194.713577 327.212494,190.421921 356.213745,186.260864 
	C358.585846,185.920517 361.094391,186.530975 363.844177,186.989075 
	C362.590454,190.627411 361.032074,193.976334 359.383972,197.665054 
	C354.200684,208.094818 349.107147,218.184753 343.971313,228.636017 
	C343.250885,230.115738 342.572723,231.234161 341.432190,232.261276 
	C339.740570,232.016663 338.472717,231.587708 337.288177,231.753647 
	C327.778717,233.085953 318.289062,234.558411 308.785736,235.935394 
	C283.231415,239.638092 257.673309,243.314651 232.116730,247.001617 
	C232.791458,242.305756 233.466202,237.609909 234.130219,232.475647 
	C235.444778,226.358582 237.054199,220.721649 237.897995,214.972336 
	C238.112167,213.513077 235.890152,211.696274 234.413010,210.015381 
	C232.670532,209.750320 231.202377,209.066422 229.950363,209.346970 
	C218.861008,211.831863 207.809967,214.487732 196.374527,217.242188 
	C192.861954,218.171173 189.722961,218.953201 186.582825,219.730499 
	C180.788605,221.164795 178.167252,219.523636 176.964584,213.381226 
	C176.954559,212.832932 177.023590,212.665604 177.202621,212.250092 
z"/>
<path fill="#FEAC07" opacity="1.000000" stroke="none" 
	d="
M246.759460,398.073486 
	C248.462585,387.490326 250.341965,377.190582 252.212601,366.473389 
	C254.207779,356.665466 256.211670,347.274994 258.203369,337.469849 
	C259.804993,329.642731 261.418884,322.230255 263.000061,314.409363 
	C264.607330,306.594727 266.247284,299.188477 267.850189,291.392578 
	C268.322510,287.839569 268.987091,284.632874 265.503967,282.062683 
	C268.766235,280.834381 271.961914,279.948273 275.217590,279.475983 
	C290.482422,277.261505 305.763794,275.160889 321.039246,273.019623 
	C317.983368,279.269165 314.914490,285.512390 311.881317,291.772949 
	C311.179291,293.221893 310.598907,294.729767 309.915710,296.585938 
	C305.019531,306.415649 300.170166,315.869934 295.265625,325.665680 
	C285.561493,345.108917 275.912567,364.210663 266.219238,383.656372 
	C263.656281,388.631287 261.341553,393.388702 258.567810,397.861481 
	C255.040558,403.549286 251.218689,403.595154 246.759460,398.073486 
z"/>
<path fill="#FFB811" opacity="1.000000" stroke="none" 
	d="
M321.256531,272.958557 
	C305.763794,275.160889 290.482422,277.261505 275.217590,279.475983 
	C271.961914,279.948273 268.766235,280.834381 265.265137,281.784302 
	C259.832764,283.162079 254.651154,284.175598 249.530167,285.435547 
	C242.624039,287.134705 235.764603,289.023590 228.476837,290.805420 
	C224.897949,288.585266 223.743271,285.852875 224.731583,281.881592 
	C226.277496,275.669708 227.327225,269.334320 228.609650,262.629395 
	C229.697662,257.385040 230.763199,252.562515 231.972717,247.370804 
	C257.673309,243.314651 283.231415,239.638092 308.785736,235.935394 
	C318.289062,234.558411 327.778717,233.085953 337.288177,231.753647 
	C338.472717,231.587708 339.740570,232.016663 341.215820,232.513397 
	C338.308289,239.322693 335.154785,245.788528 331.958923,252.615021 
	C328.599152,259.343719 325.281708,265.711731 321.938477,272.435669 
	C321.912689,272.791565 321.473816,272.897461 321.256531,272.958557 
z"/>
</svg>